<svg width="24" height="24" viewBox="0 0 24 24" fill="none" xmlns="http://www.w3.org/2000/svg">
<path fill-rule="evenodd" clip-rule="evenodd" d="M4.87337 4.5C4.57501 4.5 4.28886 4.61853 4.07788 4.8295C3.8669 5.04048 3.74837 5.32663 3.74837 5.625V8.25H20.2484V7.125C20.2484 6.82663 20.1298 6.54048 19.9189 6.3295C19.7079 6.11853 19.4217 6 19.1234 6H11.816C11.2978 5.99999 10.7911 5.84655 10.3598 5.55904C10.3598 5.55903 10.3598 5.55901 10.3598 5.559L9.05479 4.689C8.86999 4.56577 8.65284 4.50001 8.43072 4.5C8.43071 4.5 8.43072 4.5 8.43072 4.5H4.87337ZM2.99837 9.75C2.89484 9.74999 2.79239 9.77142 2.69755 9.81294C2.6027 9.85445 2.51748 9.91516 2.44725 9.99122C2.37702 10.0673 2.32329 10.1571 2.28946 10.2549C2.25624 10.351 2.24291 10.4528 2.25025 10.5542L3.0098 18.3018C3.01218 18.3261 3.01337 18.3506 3.01337 18.375C3.01337 18.673 3.13163 18.9589 3.34218 19.1698C3.55257 19.3806 3.83793 19.4993 4.13571 19.5C4.13594 19.5 4.13617 19.5 4.13641 19.5H19.8603C19.8606 19.5 19.8608 19.5 19.861 19.5C20.1588 19.4993 20.4442 19.3806 20.6546 19.1698C20.8651 18.9589 20.9834 18.673 20.9834 18.375C20.9834 18.3506 20.9846 18.3261 20.987 18.3018L21.7465 10.5542C21.7538 10.453 21.7406 10.3514 21.7075 10.2555C21.6738 10.1578 21.6203 10.0681 21.5503 9.99208C21.4803 9.91605 21.3954 9.8553 21.3008 9.81364C21.2065 9.77211 21.1047 9.75045 21.0017 9.75H2.99837ZM21.7484 8.37864V7.125C21.7484 6.42881 21.4718 5.76113 20.9795 5.26884C20.4872 4.77656 19.8196 4.5 19.1234 4.5H11.8161C11.8161 4.5 11.816 4.5 11.8161 4.5C11.5939 4.49999 11.3768 4.43423 11.192 4.311L9.88696 3.441C9.88694 3.44099 9.88692 3.44097 9.8869 3.44096C9.45569 3.15345 8.94901 3.00001 8.43074 3H4.87337C4.17718 3 3.5095 3.27656 3.01722 3.76884C2.52494 4.26113 2.24837 4.92881 2.24837 5.625V8.37865C2.19697 8.39682 2.14616 8.41689 2.09606 8.43882C1.81153 8.56336 1.55587 8.74547 1.34517 8.97367C1.13447 9.20187 0.9733 9.47122 0.871807 9.76477C0.770314 10.0583 0.730696 10.3697 0.755446 10.6793C0.755804 10.6838 0.756202 10.6882 0.75664 10.6927L1.51367 18.4147C1.52397 19.0958 1.79867 19.7468 2.28059 20.2295C2.77188 20.7217 3.43838 20.9988 4.13378 21L4.13509 21H19.8617L19.863 21C20.5584 20.9988 21.2249 20.7217 21.7162 20.2295C22.1981 19.7468 22.4728 19.0958 22.4831 18.4147L23.2401 10.6927C23.2405 10.6882 23.2409 10.6838 23.2413 10.6793C23.266 10.3703 23.2266 10.0595 23.1255 9.76643C23.0244 9.47337 22.8639 9.20435 22.654 8.97625C22.444 8.74816 22.1892 8.56591 21.9055 8.44093C21.8539 8.41817 21.8014 8.3974 21.7484 8.37864Z" fill="white"/>
</svg>
